<svg xmlns="http://www.w3.org/2000/svg" width="820" height="220" viewBox="0 0 820 220" font-family="'IBM Plex Mono',ui-monospace,monospace" role="img" aria-label="Visits over the last 90 days: 0 total">
  <defs>
    <radialGradient id="bg" cx="50%" cy="0%" r="120%">
      <stop offset="0%" stop-color="#0d0d20"/>
      <stop offset="55%" stop-color="#06060c"/>
    </radialGradient>
    <linearGradient id="fill" x1="0" y1="0" x2="0" y2="1">
      <stop offset="0%" stop-color="#00e676" stop-opacity="0.35"/>
      <stop offset="100%" stop-color="#00e676" stop-opacity="0"/>
    </linearGradient>
  </defs>
  <rect width="820" height="220" rx="10" fill="url(#bg)"/>
  <text x="16" y="20" fill="#f1f6f2" font-size="13" font-weight="600">Visits — last 90 days</text>
  <text x="804.0" y="20" text-anchor="end" fill="#00e676" font-size="13" font-weight="600">0 total</text>
  <line x1="16" y1="194.0" x2="804.0" y2="194.0" stroke="rgba(241,246,242,0.10)"/><text x="804.0" y="190.0" text-anchor="end" fill="#8d97a3" font-size="11">0</text><line x1="16" y1="112.0" x2="804.0" y2="112.0" stroke="rgba(241,246,242,0.10)"/><text x="804.0" y="108.0" text-anchor="end" fill="#8d97a3" font-size="11">1</text><line x1="16" y1="30.0" x2="804.0" y2="30.0" stroke="rgba(241,246,242,0.10)"/><text x="804.0" y="26.0" text-anchor="end" fill="#8d97a3" font-size="11">1</text>
  <path d="M16.0,194.0 L16.0,194.0 L24.9,194.0 L33.7,194.0 L42.6,194.0 L51.4,194.0 L60.3,194.0 L69.1,194.0 L78.0,194.0 L86.8,194.0 L95.7,194.0 L104.5,194.0 L113.4,194.0 L122.2,194.0 L131.1,194.0 L140.0,194.0 L148.8,194.0 L157.7,194.0 L166.5,194.0 L175.4,194.0 L184.2,194.0 L193.1,194.0 L201.9,194.0 L210.8,194.0 L219.6,194.0 L228.5,194.0 L237.3,194.0 L246.2,194.0 L255.1,194.0 L263.9,194.0 L272.8,194.0 L281.6,194.0 L290.5,194.0 L299.3,194.0 L308.2,194.0 L317.0,194.0 L325.9,194.0 L334.7,194.0 L343.6,194.0 L352.4,194.0 L361.3,194.0 L370.2,194.0 L379.0,194.0 L387.9,194.0 L396.7,194.0 L405.6,194.0 L414.4,194.0 L423.3,194.0 L432.1,194.0 L441.0,194.0 L449.8,194.0 L458.7,194.0 L467.6,194.0 L476.4,194.0 L485.3,194.0 L494.1,194.0 L503.0,194.0 L511.8,194.0 L520.7,194.0 L529.5,194.0 L538.4,194.0 L547.2,194.0 L556.1,194.0 L564.9,194.0 L573.8,194.0 L582.7,194.0 L591.5,194.0 L600.4,194.0 L609.2,194.0 L618.1,194.0 L626.9,194.0 L635.8,194.0 L644.6,194.0 L653.5,194.0 L662.3,194.0 L671.2,194.0 L680.0,194.0 L688.9,194.0 L697.8,194.0 L706.6,194.0 L715.5,194.0 L724.3,194.0 L733.2,194.0 L742.0,194.0 L750.9,194.0 L759.7,194.0 L768.6,194.0 L777.4,194.0 L786.3,194.0 L795.1,194.0 L804.0,194.0 L804.0,194.0 Z" fill="url(#fill)"/>
  <path d="M16.0,194.0 L24.9,194.0 L33.7,194.0 L42.6,194.0 L51.4,194.0 L60.3,194.0 L69.1,194.0 L78.0,194.0 L86.8,194.0 L95.7,194.0 L104.5,194.0 L113.4,194.0 L122.2,194.0 L131.1,194.0 L140.0,194.0 L148.8,194.0 L157.7,194.0 L166.5,194.0 L175.4,194.0 L184.2,194.0 L193.1,194.0 L201.9,194.0 L210.8,194.0 L219.6,194.0 L228.5,194.0 L237.3,194.0 L246.2,194.0 L255.1,194.0 L263.9,194.0 L272.8,194.0 L281.6,194.0 L290.5,194.0 L299.3,194.0 L308.2,194.0 L317.0,194.0 L325.9,194.0 L334.7,194.0 L343.6,194.0 L352.4,194.0 L361.3,194.0 L370.2,194.0 L379.0,194.0 L387.9,194.0 L396.7,194.0 L405.6,194.0 L414.4,194.0 L423.3,194.0 L432.1,194.0 L441.0,194.0 L449.8,194.0 L458.7,194.0 L467.6,194.0 L476.4,194.0 L485.3,194.0 L494.1,194.0 L503.0,194.0 L511.8,194.0 L520.7,194.0 L529.5,194.0 L538.4,194.0 L547.2,194.0 L556.1,194.0 L564.9,194.0 L573.8,194.0 L582.7,194.0 L591.5,194.0 L600.4,194.0 L609.2,194.0 L618.1,194.0 L626.9,194.0 L635.8,194.0 L644.6,194.0 L653.5,194.0 L662.3,194.0 L671.2,194.0 L680.0,194.0 L688.9,194.0 L697.8,194.0 L706.6,194.0 L715.5,194.0 L724.3,194.0 L733.2,194.0 L742.0,194.0 L750.9,194.0 L759.7,194.0 L768.6,194.0 L777.4,194.0 L786.3,194.0 L795.1,194.0 L804.0,194.0" fill="none" stroke="#00e676" stroke-width="2" stroke-linejoin="round" stroke-linecap="round"/>
  <circle cx="804.0" cy="194.0" r="3.5" fill="#ffd54f"/>
  <text x="16" y="212" fill="#8d97a3" font-size="11">Mar 23</text>
  <text x="804.0" y="212" text-anchor="end" fill="#8d97a3" font-size="11">Jun 20</text>
</svg>
