<svg xmlns="http://www.w3.org/2000/svg" width="820" height="210" viewBox="0 0 820 210" font-family="'Geist Mono',ui-monospace,monospace" role="img" aria-label="Visits over the last 90 days: 95 total">
  <defs>
    <linearGradient id="fill" x1="0" y1="0" x2="0" y2="1">
      <stop offset="0%" stop-color="#ff6a30" stop-opacity="0.30"/>
      <stop offset="100%" stop-color="#ff6a30" stop-opacity="0"/>
    </linearGradient>
  </defs>
  <rect width="820" height="210" rx="10" fill="#1c1a17"/>
  <text x="16" y="18" fill="#a8a69d" font-size="11" letter-spacing="0.04em">howmuchisatrillion.com site visits</text>
  <line x1="16" y1="184.0" x2="804.0" y2="184.0" stroke="rgba(241,239,231,0.10)"/><text x="804.0" y="180.0" text-anchor="end" fill="#a8a69d" font-size="11">0</text><line x1="16" y1="109.0" x2="804.0" y2="109.0" stroke="rgba(241,239,231,0.10)"/><text x="804.0" y="105.0" text-anchor="end" fill="#a8a69d" font-size="11">11</text><line x1="16" y1="34.0" x2="804.0" y2="34.0" stroke="rgba(241,239,231,0.10)"/><text x="804.0" y="30.0" text-anchor="end" fill="#a8a69d" font-size="11">21</text>
  <path d="M16.0,184.0 L16.0,184.0 L24.9,184.0 L33.7,184.0 L42.6,184.0 L51.4,184.0 L60.3,184.0 L69.1,184.0 L78.0,184.0 L86.8,184.0 L95.7,184.0 L104.5,184.0 L113.4,184.0 L122.2,184.0 L131.1,184.0 L140.0,184.0 L148.8,184.0 L157.7,184.0 L166.5,184.0 L175.4,184.0 L184.2,184.0 L193.1,184.0 L201.9,184.0 L210.8,184.0 L219.6,184.0 L228.5,184.0 L237.3,184.0 L246.2,184.0 L255.1,184.0 L263.9,184.0 L272.8,184.0 L281.6,184.0 L290.5,184.0 L299.3,184.0 L308.2,184.0 L317.0,184.0 L325.9,184.0 L334.7,184.0 L343.6,184.0 L352.4,184.0 L361.3,184.0 L370.2,184.0 L379.0,184.0 L387.9,184.0 L396.7,184.0 L405.6,184.0 L414.4,184.0 L423.3,184.0 L432.1,184.0 L441.0,184.0 L449.8,184.0 L458.7,184.0 L467.6,134.0 L476.4,34.0 L485.3,112.6 L494.1,112.6 L503.0,41.1 L511.8,162.6 L520.7,169.7 L529.5,176.9 L538.4,148.3 L547.2,169.7 L556.1,184.0 L564.9,176.9 L573.8,184.0 L582.7,176.9 L591.5,184.0 L600.4,184.0 L609.2,184.0 L618.1,184.0 L626.9,176.9 L635.8,184.0 L644.6,176.9 L653.5,176.9 L662.3,184.0 L671.2,176.9 L680.0,184.0 L688.9,184.0 L697.8,184.0 L706.6,184.0 L715.5,169.7 L724.3,184.0 L733.2,176.9 L742.0,184.0 L750.9,184.0 L759.7,148.3 L768.6,184.0 L777.4,184.0 L786.3,184.0 L795.1,184.0 L804.0,184.0 L804.0,184.0 Z" fill="url(#fill)"/>
  <path d="M16.0,184.0 L24.9,184.0 L33.7,184.0 L42.6,184.0 L51.4,184.0 L60.3,184.0 L69.1,184.0 L78.0,184.0 L86.8,184.0 L95.7,184.0 L104.5,184.0 L113.4,184.0 L122.2,184.0 L131.1,184.0 L140.0,184.0 L148.8,184.0 L157.7,184.0 L166.5,184.0 L175.4,184.0 L184.2,184.0 L193.1,184.0 L201.9,184.0 L210.8,184.0 L219.6,184.0 L228.5,184.0 L237.3,184.0 L246.2,184.0 L255.1,184.0 L263.9,184.0 L272.8,184.0 L281.6,184.0 L290.5,184.0 L299.3,184.0 L308.2,184.0 L317.0,184.0 L325.9,184.0 L334.7,184.0 L343.6,184.0 L352.4,184.0 L361.3,184.0 L370.2,184.0 L379.0,184.0 L387.9,184.0 L396.7,184.0 L405.6,184.0 L414.4,184.0 L423.3,184.0 L432.1,184.0 L441.0,184.0 L449.8,184.0 L458.7,184.0 L467.6,134.0 L476.4,34.0 L485.3,112.6 L494.1,112.6 L503.0,41.1 L511.8,162.6 L520.7,169.7 L529.5,176.9 L538.4,148.3 L547.2,169.7 L556.1,184.0 L564.9,176.9 L573.8,184.0 L582.7,176.9 L591.5,184.0 L600.4,184.0 L609.2,184.0 L618.1,184.0 L626.9,176.9 L635.8,184.0 L644.6,176.9 L653.5,176.9 L662.3,184.0 L671.2,176.9 L680.0,184.0 L688.9,184.0 L697.8,184.0 L706.6,184.0 L715.5,169.7 L724.3,184.0 L733.2,176.9 L742.0,184.0 L750.9,184.0 L759.7,148.3 L768.6,184.0 L777.4,184.0 L786.3,184.0 L795.1,184.0 L804.0,184.0" fill="none" stroke="#ff6a30" stroke-width="2" stroke-linejoin="round" stroke-linecap="round"/>
  <circle cx="804.0" cy="184.0" r="3.5" fill="#f1efe7"/>
  <text x="16.0" y="202" text-anchor="start" fill="#a8a69d" font-size="11">Apr 22</text><text x="175.4" y="202" text-anchor="middle" fill="#a8a69d" font-size="11">May 10</text><text x="334.7" y="202" text-anchor="middle" fill="#a8a69d" font-size="11">May 28</text><text x="485.3" y="202" text-anchor="middle" fill="#a8a69d" font-size="11">Jun 14</text><text x="644.6" y="202" text-anchor="middle" fill="#a8a69d" font-size="11">Jul 2</text><text x="804.0" y="202" text-anchor="end" fill="#a8a69d" font-size="11">Jul 20</text>
</svg>
