<svg xmlns="http://www.w3.org/2000/svg" width="820" height="200" viewBox="0 0 820 200" font-family="'Geist Mono',ui-monospace,monospace" role="img" aria-label="Visits over the last 90 days: 74 total">
  <defs>
    <linearGradient id="fill" x1="0" y1="0" x2="0" y2="1">
      <stop offset="0%" stop-color="#ff6a30" stop-opacity="0.30"/>
      <stop offset="100%" stop-color="#ff6a30" stop-opacity="0"/>
    </linearGradient>
  </defs>
  <rect width="820" height="200" rx="10" fill="#1c1a17"/>
  <line x1="16" y1="174.0" x2="804.0" y2="174.0" stroke="rgba(241,239,231,0.10)"/><text x="804.0" y="170.0" text-anchor="end" fill="#a8a69d" font-size="11">0</text><line x1="16" y1="95.0" x2="804.0" y2="95.0" stroke="rgba(241,239,231,0.10)"/><text x="804.0" y="91.0" text-anchor="end" fill="#a8a69d" font-size="11">11</text><line x1="16" y1="16.0" x2="804.0" y2="16.0" stroke="rgba(241,239,231,0.10)"/><text x="804.0" y="12.0" text-anchor="end" fill="#a8a69d" font-size="11">21</text>
  <path d="M16.0,174.0 L16.0,174.0 L24.9,174.0 L33.7,174.0 L42.6,174.0 L51.4,174.0 L60.3,174.0 L69.1,174.0 L78.0,174.0 L86.8,174.0 L95.7,174.0 L104.5,174.0 L113.4,174.0 L122.2,174.0 L131.1,174.0 L140.0,174.0 L148.8,174.0 L157.7,174.0 L166.5,174.0 L175.4,174.0 L184.2,174.0 L193.1,174.0 L201.9,174.0 L210.8,174.0 L219.6,174.0 L228.5,174.0 L237.3,174.0 L246.2,174.0 L255.1,174.0 L263.9,174.0 L272.8,174.0 L281.6,174.0 L290.5,174.0 L299.3,174.0 L308.2,174.0 L317.0,174.0 L325.9,174.0 L334.7,174.0 L343.6,174.0 L352.4,174.0 L361.3,174.0 L370.2,174.0 L379.0,174.0 L387.9,174.0 L396.7,174.0 L405.6,174.0 L414.4,174.0 L423.3,174.0 L432.1,174.0 L441.0,174.0 L449.8,174.0 L458.7,174.0 L467.6,174.0 L476.4,174.0 L485.3,174.0 L494.1,174.0 L503.0,174.0 L511.8,174.0 L520.7,174.0 L529.5,174.0 L538.4,174.0 L547.2,174.0 L556.1,174.0 L564.9,174.0 L573.8,174.0 L582.7,174.0 L591.5,174.0 L600.4,174.0 L609.2,174.0 L618.1,174.0 L626.9,174.0 L635.8,174.0 L644.6,174.0 L653.5,174.0 L662.3,174.0 L671.2,174.0 L680.0,174.0 L688.9,174.0 L697.8,174.0 L706.6,174.0 L715.5,174.0 L724.3,174.0 L733.2,121.3 L742.0,16.0 L750.9,98.8 L759.7,98.8 L768.6,23.5 L777.4,151.4 L786.3,159.0 L795.1,166.5 L804.0,174.0 L804.0,174.0 Z" fill="url(#fill)"/>
  <path d="M16.0,174.0 L24.9,174.0 L33.7,174.0 L42.6,174.0 L51.4,174.0 L60.3,174.0 L69.1,174.0 L78.0,174.0 L86.8,174.0 L95.7,174.0 L104.5,174.0 L113.4,174.0 L122.2,174.0 L131.1,174.0 L140.0,174.0 L148.8,174.0 L157.7,174.0 L166.5,174.0 L175.4,174.0 L184.2,174.0 L193.1,174.0 L201.9,174.0 L210.8,174.0 L219.6,174.0 L228.5,174.0 L237.3,174.0 L246.2,174.0 L255.1,174.0 L263.9,174.0 L272.8,174.0 L281.6,174.0 L290.5,174.0 L299.3,174.0 L308.2,174.0 L317.0,174.0 L325.9,174.0 L334.7,174.0 L343.6,174.0 L352.4,174.0 L361.3,174.0 L370.2,174.0 L379.0,174.0 L387.9,174.0 L396.7,174.0 L405.6,174.0 L414.4,174.0 L423.3,174.0 L432.1,174.0 L441.0,174.0 L449.8,174.0 L458.7,174.0 L467.6,174.0 L476.4,174.0 L485.3,174.0 L494.1,174.0 L503.0,174.0 L511.8,174.0 L520.7,174.0 L529.5,174.0 L538.4,174.0 L547.2,174.0 L556.1,174.0 L564.9,174.0 L573.8,174.0 L582.7,174.0 L591.5,174.0 L600.4,174.0 L609.2,174.0 L618.1,174.0 L626.9,174.0 L635.8,174.0 L644.6,174.0 L653.5,174.0 L662.3,174.0 L671.2,174.0 L680.0,174.0 L688.9,174.0 L697.8,174.0 L706.6,174.0 L715.5,174.0 L724.3,174.0 L733.2,121.3 L742.0,16.0 L750.9,98.8 L759.7,98.8 L768.6,23.5 L777.4,151.4 L786.3,159.0 L795.1,166.5 L804.0,174.0" fill="none" stroke="#ff6a30" stroke-width="2" stroke-linejoin="round" stroke-linecap="round"/>
  <circle cx="804.0" cy="174.0" r="3.5" fill="#f1efe7"/>
  <text x="16" y="192" fill="#a8a69d" font-size="11">Mar 23</text>
  <text x="804.0" y="192" text-anchor="end" fill="#a8a69d" font-size="11">Jun 20</text>
</svg>
